<svg xmlns="http://www.w3.org/2000/svg" width="537" height="161" fill="none" viewBox="0 0 537 161"><path fill="#fff" d="M533.418 142.041C533.418 144.055 533.021 146.049 532.249 147.909C531.478 149.769 530.347 151.459 528.922 152.882C527.497 154.306 525.806 155.434 523.944 156.203C522.082 156.972 520.088 157.367 518.073 157.365H15.9262C11.8563 157.369 7.95131 155.757 5.07006 152.884C2.18881 150.01 0.567226 146.11 0.561922 142.041V19.8352C0.567224 15.7645 2.18817 11.8623 5.06884 8.98539C7.94952 6.10848 11.8544 4.49203 15.9262 4.49097H518.069C520.085 4.49097 522.08 4.88789 523.942 5.65906C525.804 6.43023 527.496 7.56054 528.921 8.98543C530.346 10.4103 531.476 12.1019 532.247 13.9635C533.018 15.8251 533.414 17.8203 533.414 19.8352L533.418 142.041Z"/><path fill="#B30733" d="M533.418 142.041C533.418 144.055 533.021 146.049 532.249 147.909C531.478 149.769 530.347 151.459 528.922 152.882C527.497 154.306 525.806 155.434 523.944 156.203C522.082 156.972 520.088 157.367 518.073 157.365H15.9262C11.8563 157.369 7.95131 155.757 5.07006 152.884C2.18881 150.01 0.567226 146.11 0.561922 142.041V19.8352C0.567224 15.7645 2.18817 11.8623 5.06884 8.98539C7.94952 6.10848 11.8544 4.49203 15.9262 4.49097H518.069C520.085 4.49097 522.08 4.88789 523.942 5.65906C525.804 6.43023 527.496 7.56054 528.921 8.98543C530.346 10.4103 531.476 12.1019 532.247 13.9635C533.018 15.8251 533.414 17.8203 533.414 19.8352L533.418 142.041Z"/><path fill="#fff" d="M117.577 80.0878C117.461 67.1922 128.139 60.9185 128.627 60.6264C122.58 51.812 113.207 50.6077 109.913 50.5116C102.041 49.6834 94.4046 55.2209 90.3944 55.2209C86.3042 55.2209 80.1289 50.5916 73.4733 50.7277C64.9086 50.8597 56.8963 55.8171 52.502 63.5152C43.4331 79.2115 50.1967 102.278 58.8854 114.965C63.2317 121.183 68.3105 128.117 74.9581 127.873C81.4616 127.609 83.8909 123.732 91.7391 123.732C99.5153 123.732 101.797 127.873 108.576 127.717C115.556 127.609 119.95 121.475 124.145 115.205C129.167 108.087 131.184 101.07 131.264 100.709C131.104 100.653 117.713 95.54 117.577 80.0878ZM104.77 42.1653C108.268 37.7921 110.661 31.8425 109.997 25.8048C104.934 26.0289 98.6028 29.3058 94.9569 33.583C91.7311 37.352 88.8496 43.5297 89.594 49.3393C95.281 49.7634 101.12 46.4705 104.77 42.1653Z"/><path fill="#fff" d="M211.776 126.981H202.687L197.708 111.34H180.403L175.66 126.981H166.812L183.961 73.734H194.551L211.776 126.981ZM196.208 104.779L191.705 90.8747C191.229 89.4543 190.332 86.1094 189.02 80.844H188.86C188.331 83.1086 187.487 86.4535 186.33 90.8747L181.904 104.779H196.208ZM255.792 107.311C255.792 113.841 254.019 119.002 250.469 122.791C247.291 126.164 243.341 127.849 238.63 127.849C233.544 127.849 229.886 126.036 227.664 122.403V142.549H219.132V101.206C219.132 97.1044 219.024 92.8993 218.816 88.5861H226.32L226.796 94.6718H226.956C229.802 90.0865 234.12 87.7939 239.915 87.7939C244.446 87.7939 248.228 89.5824 251.253 93.1633C254.275 96.7523 255.792 101.466 255.792 107.311ZM247.099 107.623C247.099 103.886 246.259 100.805 244.57 98.3768C242.725 95.8521 240.247 94.5877 237.142 94.5877C235.036 94.5877 233.123 95.2919 231.415 96.6803C229.702 98.0807 228.581 99.9092 228.057 102.174C227.823 103.021 227.69 103.892 227.66 104.771V111.176C227.66 113.965 228.517 116.322 230.23 118.25C231.943 120.171 234.168 121.135 236.905 121.135C240.119 121.135 242.621 119.891 244.41 117.422C246.202 114.945 247.099 111.68 247.099 107.623ZM299.963 107.311C299.963 113.841 298.191 119.002 294.641 122.791C291.459 126.164 287.513 127.849 282.798 127.849C277.712 127.849 274.054 126.036 271.832 122.403V142.549H263.3V101.206C263.3 97.1044 263.192 92.8993 262.984 88.5861H270.488L270.964 94.6718H271.124C273.965 90.0865 278.284 87.7939 284.083 87.7939C288.609 87.7939 292.391 89.5824 295.425 93.1633C298.443 96.7523 299.963 101.466 299.963 107.311ZM291.267 107.623C291.267 103.886 290.422 100.805 288.733 98.3768C286.888 95.8521 284.419 94.5877 281.313 94.5877C279.208 94.5877 277.295 95.2919 275.578 96.6803C273.865 98.0807 272.749 99.9092 272.225 102.174C271.964 103.23 271.824 104.09 271.824 104.771V111.176C271.824 113.965 272.685 116.322 274.39 118.25C276.103 120.167 278.328 121.135 281.073 121.135C284.291 121.135 286.792 119.891 288.577 117.422C290.37 114.945 291.267 111.68 291.267 107.623ZM349.35 112.045C349.35 116.578 347.765 120.263 344.616 123.108C341.15 126.212 336.311 127.769 330.108 127.769C324.377 127.769 319.782 126.665 316.316 124.452L318.289 117.342C322.031 119.559 326.142 120.663 330.616 120.663C333.834 120.663 336.335 119.935 338.12 118.49C339.909 117.042 340.814 115.105 340.814 112.689C340.814 110.524 340.065 108.712 338.596 107.235C337.12 105.763 334.678 104.39 331.248 103.13C321.923 99.6531 317.257 94.5677 317.257 87.8779C317.257 83.5087 318.906 79.9317 322.195 77.1349C325.485 74.3422 329.848 72.9458 335.275 72.9458C340.121 72.9458 344.159 73.79 347.365 75.4745L345.224 82.4284C342.206 80.7959 338.8 79.9797 334.99 79.9797C331.981 79.9797 329.62 80.7199 327.931 82.1923C326.51 83.5087 325.789 85.1131 325.789 87.0177C325.789 89.1182 326.61 90.8627 328.243 92.2311C329.66 93.4914 332.245 94.8638 335.983 96.3362C340.569 98.1847 343.939 100.337 346.096 102.81C348.27 105.283 349.35 108.368 349.35 112.045ZM377.633 94.9878H368.228V113.629C368.228 118.37 369.885 120.735 373.207 120.735C374.732 120.735 375.997 120.607 376.997 120.339L377.233 126.817C375.552 127.445 373.339 127.761 370.598 127.761C367.228 127.761 364.594 126.733 362.693 124.676C360.8 122.619 359.848 119.174 359.848 114.325V94.9718H354.245V88.5701H359.848V81.5402L368.228 79.0115V88.5701H377.633V94.9878ZM419.984 107.467C419.984 113.369 418.295 118.214 414.926 122.003C411.4 125.904 406.709 127.849 400.862 127.849C395.219 127.849 390.732 125.98 387.387 122.247C384.041 118.506 382.368 113.793 382.368 108.107C382.368 102.158 384.097 97.2845 387.543 93.4954C390.997 89.7024 395.647 87.8059 401.494 87.8059C407.129 87.8059 411.656 89.6784 415.082 93.4154C418.355 97.0404 419.984 101.722 419.984 107.467ZM411.139 107.663C411.139 104.146 410.379 101.13 408.854 98.6048C407.065 95.556 404.504 94.0316 401.186 94.0316C397.768 94.0316 395.147 95.556 393.362 98.6048C391.833 101.13 391.073 104.198 391.073 107.823C391.073 111.344 391.833 114.369 393.362 116.886C395.207 119.935 397.78 121.459 401.114 121.459C404.376 121.459 406.933 119.903 408.782 116.81C410.351 114.225 411.139 111.188 411.139 107.663ZM447.731 96.0882C446.844 95.928 445.944 95.849 445.042 95.8521C442.04 95.8521 439.719 96.9804 438.086 99.253C436.669 101.254 435.957 103.782 435.957 106.835V126.981H427.424V100.677C427.432 96.647 427.349 92.6168 427.176 88.5901H434.608L434.92 95.9361H435.156C436.061 93.4114 437.478 91.3749 439.423 89.8504C441.203 88.5184 443.366 87.797 445.59 87.7939C446.379 87.7939 447.091 87.8499 447.723 87.9499L447.731 96.0882ZM485.892 105.967C485.913 107.264 485.809 108.559 485.58 109.836H459.982C460.078 113.629 461.319 116.534 463.696 118.534C465.853 120.319 468.643 121.215 472.068 121.215C475.858 121.215 479.316 120.615 482.426 119.403L483.763 125.32C480.129 126.905 475.838 127.693 470.888 127.693C464.933 127.693 460.258 125.94 456.856 122.443C453.462 118.942 451.761 114.237 451.761 108.344C451.761 102.558 453.342 97.7366 456.508 93.8915C459.822 89.7864 464.3 87.7339 469.935 87.7339C475.47 87.7339 479.66 89.7864 482.506 93.8915C484.759 97.1444 485.892 101.178 485.892 105.967ZM477.755 103.754C477.816 101.222 477.255 99.041 476.099 97.1965C474.622 94.8198 472.349 93.6355 469.303 93.6355C466.513 93.6355 464.24 94.7918 462.511 97.1124C461.09 98.9569 460.246 101.174 459.986 103.746L477.755 103.754Z"/><path fill="#fff" d="M177.942 54.9088C175.568 54.9088 173.515 54.7928 171.806 54.5967V28.8537C174.196 28.4845 176.612 28.3026 179.03 28.3095C188.816 28.3095 193.322 33.1228 193.322 40.969C193.322 50.0195 187.999 54.9088 177.942 54.9088ZM179.374 31.6104C178.054 31.6104 176.929 31.6904 175.997 31.8825V51.4519C176.501 51.5319 177.469 51.5679 178.83 51.5679C185.242 51.5679 188.892 47.9189 188.892 41.085C188.892 34.9914 185.59 31.6104 179.374 31.6104ZM207.366 55.1049C201.851 55.1049 198.277 50.9878 198.277 45.3982C198.277 39.5726 201.927 35.4195 207.678 35.4195C213.113 35.4195 216.767 39.3406 216.767 45.0901C216.767 50.9878 213.001 55.1049 207.366 55.1049ZM207.526 38.4843C204.496 38.4843 202.555 41.3171 202.555 45.2782C202.555 49.1633 204.536 51.996 207.486 51.996C210.435 51.996 212.416 48.9672 212.416 45.1982C212.416 41.3571 210.475 38.4843 207.526 38.4843ZM248.216 35.8076L242.312 54.6768H238.466L236.021 46.4825C235.413 44.4781 234.907 42.4443 234.504 40.3888H234.424C234.116 42.4454 233.532 44.506 232.911 46.4825L230.31 54.6768H226.424L220.869 35.8076H225.179L227.316 44.778C227.821 46.9146 228.245 48.9312 228.597 50.8357H228.677C228.985 49.2473 229.489 47.2627 230.23 44.8181L232.911 35.8116H236.329L238.895 44.626C239.515 46.7626 240.019 48.8592 240.411 50.8397H240.523C240.796 48.8992 241.224 46.8386 241.804 44.626L244.097 35.8116L248.216 35.8076ZM269.947 54.6768H265.753V43.8418C265.753 40.5049 264.472 38.8324 261.947 38.8324C259.462 38.8324 257.753 40.969 257.753 43.4537V54.6768H253.558V41.2011C253.558 39.5326 253.518 37.7441 253.402 35.8036H257.092L257.288 38.7164H257.405C258.533 36.6998 260.822 35.4195 263.388 35.4195C267.35 35.4195 269.951 38.4483 269.951 43.3777L269.947 54.6768ZM281.514 54.6768H277.315V27.1492H281.514V54.6768ZM296.806 55.1049C291.295 55.1049 287.717 50.9878 287.717 45.3982C287.717 39.5726 291.367 35.4195 297.114 35.4195C302.553 35.4195 306.203 39.3406 306.203 45.0901C306.207 50.9878 302.437 55.1049 296.806 55.1049ZM296.962 38.4843C293.932 38.4843 291.991 41.3171 291.991 45.2782C291.991 49.1633 293.976 51.996 296.918 51.996C299.871 51.996 301.849 48.9672 301.849 45.1982C301.853 41.3571 299.915 38.4843 296.962 38.4843ZM322.74 54.6768L322.436 52.5042H322.324C321.043 54.2527 319.174 55.1049 316.805 55.1049C313.423 55.1049 311.021 52.7362 311.021 49.5514C311.021 44.8941 315.06 42.4854 322.051 42.4854V42.1373C322.051 39.6526 320.735 38.4083 318.133 38.4083C316.272 38.4083 314.639 38.8764 313.203 39.8087L312.35 37.0519C314.095 35.9636 316.272 35.4195 318.83 35.4195C323.76 35.4195 326.25 38.0202 326.25 43.2256V50.1755C326.25 52.0801 326.334 53.5565 326.522 54.6808L322.74 54.6768ZM322.163 45.2782C317.505 45.2782 315.168 46.4065 315.168 49.0832C315.168 51.0638 316.372 52.032 318.045 52.032C320.178 52.032 322.163 50.4036 322.163 48.191V45.2782ZM346.617 54.6768L346.421 51.6479H346.305C345.1 53.9366 343.075 55.1049 340.245 55.1049C335.695 55.1049 332.325 51.1038 332.325 45.4742C332.325 39.5726 335.819 35.4155 340.589 35.4155C343.115 35.4155 344.904 36.2677 345.912 37.9802H345.996V27.1492H350.195V49.5914C350.195 51.4159 350.239 53.1243 350.351 54.6768H346.617ZM345.996 43.5737C345.996 40.933 344.247 38.6804 341.578 38.6804C338.468 38.6804 336.567 41.4371 336.567 45.3182C336.567 49.1232 338.54 51.728 341.494 51.728C344.131 51.728 345.996 49.4353 345.996 46.7186V43.5737ZM376.813 55.1049C371.302 55.1049 367.728 50.9878 367.728 45.3982C367.728 39.5726 371.378 35.4195 377.125 35.4195C382.564 35.4195 386.214 39.3406 386.214 45.0901C386.218 50.9878 382.452 55.1049 376.813 55.1049ZM376.969 38.4843C373.943 38.4843 372.002 41.3171 372.002 45.2782C372.002 49.1633 373.983 51.996 376.929 51.996C379.883 51.996 381.86 48.9672 381.86 45.1982C381.868 41.3571 379.927 38.4843 376.969 38.4843ZM408.77 54.6768H404.572V43.8418C404.572 40.5049 403.291 38.8324 400.766 38.8324C398.281 38.8324 396.576 40.969 396.576 43.4537V54.6768H392.377V41.2011C392.377 39.5326 392.337 37.7441 392.221 35.8036H395.911L396.107 38.7164H396.223C397.348 36.6998 399.641 35.4155 402.203 35.4155C406.165 35.4155 408.77 38.4443 408.77 43.3737V54.6768ZM436.989 38.9524H432.375V48.115C432.375 50.4476 433.183 51.6119 434.816 51.6119C435.557 51.6119 436.177 51.5319 436.677 51.4159L436.793 54.6007C435.981 54.9128 434.892 55.0689 433.54 55.0689C430.234 55.0689 428.257 53.2444 428.257 48.4671V38.9524H425.503V35.8076H428.257V32.3506L432.375 31.1063V35.8036H436.989V38.9524ZM459.193 54.6768H455.003V43.9218C455.003 40.5449 453.726 38.8364 451.197 38.8364C449.024 38.8364 446.999 40.3128 446.999 43.3016V54.6768H442.809V27.1492H446.999V38.4843H447.083C448.404 36.4278 450.317 35.4155 452.758 35.4155C456.752 35.4155 459.193 38.5203 459.193 43.4537V54.6768ZM481.942 46.2505H469.355C469.435 49.8234 471.8 51.84 475.302 51.84C477.163 51.84 478.876 51.5279 480.389 50.9477L481.041 53.8605C479.256 54.6368 477.155 55.0249 474.71 55.0249C468.807 55.0249 465.313 51.2958 465.313 45.5142C465.313 39.7287 468.891 35.3795 474.238 35.3795C479.06 35.3795 482.086 38.9524 482.086 44.3499C482.113 44.9869 482.065 45.6248 481.942 46.2505ZM478.096 43.2616C478.096 40.3488 476.627 38.2923 473.945 38.2923C471.536 38.2923 469.631 40.3888 469.359 43.2616H478.096Z"/></svg>