<svg width="368" height="115" viewBox="0 0 368 115" fill="none" xmlns="http://www.w3.org/2000/svg">
<g clip-path="url(#clip0_2_37)">
<path d="M356.5 114.5H11.5C5.175 114.5 0 109.325 0 103V11C0 4.675 5.175 -0.5 11.5 -0.5H356.5C362.825 -0.5 368 4.675 368 11V103C368 109.325 362.825 114.5 356.5 114.5Z" fill="#FF0043"/>
<path fill-rule="evenodd" clip-rule="evenodd" d="M204.413 96.9625C202.975 95.8125 201.825 93.8 201.25 92.65L205.85 90.6375C206.138 91.2125 206.713 92.075 207.288 92.9375C208.438 94.0875 210.163 95.2375 211.888 95.2375C213.613 95.2375 215.625 94.375 216.775 92.9375C217.637 91.5 218.212 90.0625 218.212 88.05V86.325C214.762 90.6375 207.575 90.0625 203.55 85.4625C199.237 80.8625 199.237 73.1 203.55 68.5C207.862 64.1875 214.187 63.6125 217.925 67.6375V65.625H222.812V87.1875C222.812 92.65 220.8 95.8125 218.212 97.825C216.487 99.2625 213.9 99.8375 211.6 99.8375C209.013 99.55 206.425 98.6875 204.413 96.9625ZM324.875 98.1125L329.763 86.6125L321.138 66.775H326.025L332.062 80.8625L338.1 66.775H342.987L329.763 98.1125H324.875ZM301.587 87.1875C300.15 85.75 299.575 83.7375 299.575 81.725C299.575 80 300.15 78.275 301.3 77.125C303.312 75.1125 306.187 74.25 309.35 74.25C311.362 74.25 313.087 74.5375 314.525 75.4C314.525 71.95 311.65 70.5125 309.35 70.5125C307.337 70.5125 305.325 71.6625 304.462 73.675L300.15 71.95C301.012 69.9375 303.312 66.2 309.062 66.2C311.937 66.2 314.812 67.0625 316.537 69.075C318.262 71.0875 318.837 73.3875 318.837 76.55V88.625H313.95V86.6125C313.375 87.475 312.225 88.05 311.362 88.625C310.212 89.2 308.775 89.4875 307.337 89.4875C305.612 89.2 303.025 88.625 301.587 87.1875ZM148.35 76.8375C148.35 71.0875 152.662 64.7625 160.425 64.7625C167.9 64.7625 172.5 71.0875 172.5 76.8375C172.5 82.5875 168.187 88.9125 160.425 88.9125C152.662 88.9125 148.35 82.5875 148.35 76.8375ZM174.225 76.8375C174.225 71.0875 178.537 64.7625 186.3 64.7625C193.775 64.7625 198.375 71.0875 198.375 76.8375C198.375 82.5875 194.062 88.9125 186.3 88.9125C178.825 88.9125 174.225 82.5875 174.225 76.8375ZM115.862 83.1625C108.675 75.975 108.962 64.1875 116.15 56.7125C119.887 52.975 124.487 51.25 129.375 51.25C133.975 51.25 138.575 52.975 142.025 56.425L138.575 60.1625C133.4 54.9875 125.062 55.275 120.175 60.45C115 65.9125 115 74.25 120.175 79.7125C125.35 85.175 133.975 85.4625 139.15 80C140.875 78.275 141.45 75.975 141.737 73.675H129.663V68.5H146.625C146.912 69.65 146.913 71.0875 146.913 72.525C146.913 76.8375 145.187 81.15 142.312 84.025C139.15 87.1875 134.55 88.9125 129.95 88.9125C124.775 88.625 119.6 86.9 115.862 83.1625ZM237.475 85.175C233.163 80.575 233.163 72.8125 237.475 67.925C241.788 63.325 248.975 63.325 253 67.925C254.437 69.3625 255.3 71.375 256.163 73.3875L240.35 80C241.213 82.0125 243.225 83.7375 246.1 83.7375C248.688 83.7375 250.413 82.875 252.138 80.2875L256.45 83.1625C255.875 83.7375 255.3 84.3125 255.013 84.8875C250.125 89.775 241.788 89.775 237.475 85.175ZM267.375 88.625V56.7125H277.725C283.763 56.7125 288.65 61.025 288.65 66.2C288.65 71.375 284.337 75.6875 278.875 75.6875H272.55V88.3375H267.375V88.625ZM291.525 88.625V56.7125H296.412V88.625H291.525ZM226.55 88.05V52.4H231.725V88.05H226.55ZM314.237 79.1375C313.087 78.275 311.363 77.9875 309.638 77.9875C306.188 77.9875 304.175 79.7125 304.175 81.725C304.175 83.7375 306.188 84.8875 308.2 84.8875C311.075 84.8875 314.237 82.5875 314.237 79.1375ZM167.038 76.8375C167.038 73.3875 164.737 69.65 160.425 69.65C156.112 69.65 153.812 73.3875 153.812 76.8375C153.812 80.2875 156.112 84.025 160.425 84.025C164.45 84.025 167.038 80.2875 167.038 76.8375ZM192.913 76.8375C192.913 73.3875 190.612 69.65 186.3 69.65C181.987 69.65 179.687 73.3875 179.687 76.8375C179.687 80.2875 181.987 84.025 186.3 84.025C190.612 84.025 192.913 80.2875 192.913 76.8375ZM218.5 78.85C218.5 78.5625 218.5 78.275 218.788 77.9875C218.788 77.7 218.788 77.125 218.788 76.8375C218.788 76.55 218.788 75.975 218.788 75.6875V75.4C218.788 75.1125 218.5 74.5375 218.5 74.25C217.637 71.375 215.05 69.3625 212.462 69.3625C209.012 69.3625 206.138 72.8125 206.138 76.55C206.138 80.575 209.012 83.7375 212.75 83.7375C215.05 84.025 217.35 82.0125 218.5 78.85ZM239.487 76.2625L250.125 71.6625C248.975 69.65 247.25 69.075 245.812 69.075C241.5 69.3625 238.912 73.9625 239.487 76.2625ZM283.475 66.4875C283.475 63.6125 281.175 61.6 278.013 61.6H272.263V71.6625H278.3C281.175 71.6625 283.475 69.3625 283.475 66.4875Z" fill="white"/>
<path fill-rule="evenodd" clip-rule="evenodd" d="M328.612 92.3617H328.325V92.075H328.612H328.325V92.3617H328.612Z" fill="white"/>
<path fill-rule="evenodd" clip-rule="evenodd" d="M329.187 92.3617C329.187 92.075 329.187 92.075 329.187 92.3617C328.9 92.075 328.9 92.075 329.187 92.3617C328.9 92.3617 328.9 92.3617 329.187 92.3617ZM329.187 92.075C329.187 92.3617 329.187 92.3617 329.187 92.075C329.187 92.3617 328.9 92.3617 329.187 92.075Z" fill="white"/>
<path fill-rule="evenodd" clip-rule="evenodd" d="M329.474 92.075H329.188H329.474V92.3617V92.075Z" fill="white"/>
<path d="M111.837 28.5375C111.837 23.3625 115.575 20.2 120.175 20.2C123.338 20.2 125.35 21.6375 126.788 23.65L124.488 25.0875C123.625 23.9375 122.188 23.075 120.175 23.075C117.013 23.075 114.712 25.375 114.712 28.825C114.712 32.275 117.013 34.575 120.175 34.575C121.9 34.575 123.338 33.7125 123.913 33.1375V30.55H119.312V27.9625H127.075V34C125.637 35.725 123.337 36.875 120.462 36.875C115.575 36.875 111.837 33.425 111.837 28.5375Z" fill="white"/>
<path d="M130.525 36.5875V20.4875H141.45V23.075H133.113V27.1H141.163V29.6875H133.113V34.2875H141.45V36.875L130.525 36.5875Z" fill="white"/>
<path d="M149.5 36.5875V23.075H144.613V20.4875H157.262V23.075H152.375V36.5875H149.5Z" fill="white"/>
<path d="M167.038 36.5875V20.4875H169.913V36.5875H167.038Z" fill="white"/>
<path d="M177.675 36.5875V23.075H172.788V20.4875H185.438V23.075H180.55V36.5875H177.675Z" fill="white"/>
<path d="M194.637 28.5375C194.637 23.65 198.088 20.2 202.975 20.2C207.863 20.2 211.313 23.65 211.313 28.5375C211.313 33.425 207.863 36.875 202.975 36.875C198.088 36.875 194.637 33.1375 194.637 28.5375ZM208.15 28.5375C208.15 25.0875 206.138 22.7875 202.688 22.7875C199.525 22.7875 197.225 25.375 197.225 28.5375C197.225 31.9875 199.238 34.2875 202.688 34.2875C206.138 34.2875 208.15 31.7 208.15 28.5375Z" fill="white"/>
<path d="M225.688 36.5875L217.35 25.0875V36.5875H214.475V20.4875H217.35L225.688 31.7V20.4875H228.563V36.5875H225.688Z" fill="white"/>
<path d="M28.1505 81.8102V30.1897C28.1505 25.5232 33.4715 22.612 37.7173 24.9537L84.48 50.764C85.4366 51.2637 86.238 52.016 86.7972 52.9391C87.3564 53.8621 87.652 54.9207 87.652 56C87.652 57.0792 87.3564 58.1379 86.7972 59.0609C86.238 59.984 85.4366 60.7362 84.48 61.236L37.7215 87.0462C33.4715 89.3922 28.1505 86.4767 28.1505 81.8102Z" stroke="white" stroke-width="3" stroke-miterlimit="10" stroke-linecap="round" stroke-linejoin="round"/>
<path d="M30.1225 25.825L61.36 54.64L74.4925 66.7525" stroke="white" stroke-width="4" stroke-miterlimit="10" stroke-linecap="round" stroke-linejoin="round"/>
<path d="M29.995 86.005L61.36 54.64L72.07 43.93" stroke="white" stroke-width="4" stroke-miterlimit="10" stroke-linecap="round" stroke-linejoin="round"/>
</g>
<defs>
<clipPath id="clip0_2_37">
<rect width="368" height="115" fill="white"/>
</clipPath>
</defs>
</svg>
